<svg xmlns="http://www.w3.org/2000/svg" width="1422" height="658" style="cursor: move;"><g transform="translate(272.94019761060923,126.41648938856952) scale(0.6417129412401937)"><path class="link" marker-end="" d="M551,319, 731,-61" style="stroke-width: 0.5; stroke-opacity: 1; stroke: rgb(80, 80, 80); fill: none;"></path><path class="link" marker-end="" d="M551,319, 731,-21" style="stroke-width: 0.5; stroke-opacity: 1; stroke: rgb(80, 80, 80); fill: none;"></path><path class="link" marker-end="" d="M551,319, 731,19" style="stroke-width: 0.5; stroke-opacity: 1; stroke: rgb(80, 80, 80); fill: none;"></path><path class="link" marker-end="" d="M551,319, 731,59" style="stroke-width: 0.5; stroke-opacity: 1; stroke: rgb(80, 80, 80); fill: none;"></path><path class="link" marker-end="" d="M551,319, 731,99" style="stroke-width: 0.5; stroke-opacity: 1; stroke: rgb(80, 80, 80); fill: none;"></path><path class="link" marker-end="" d="M551,319, 731,139" style="stroke-width: 0.5; stroke-opacity: 1; stroke: rgb(80, 80, 80); fill: none;"></path><path class="link" marker-end="" d="M551,319, 731,179" style="stroke-width: 0.5; stroke-opacity: 1; stroke: rgb(80, 80, 80); fill: none;"></path><path class="link" marker-end="" d="M551,319, 731,219" style="stroke-width: 0.5; stroke-opacity: 1; stroke: rgb(80, 80, 80); fill: none;"></path><path class="link" marker-end="" d="M551,319, 731,259" style="stroke-width: 0.5; stroke-opacity: 1; stroke: rgb(80, 80, 80); fill: none;"></path><path class="link" marker-end="" d="M551,319, 731,299" style="stroke-width: 0.5; stroke-opacity: 1; stroke: rgb(80, 80, 80); fill: none;"></path><path class="link" marker-end="" d="M551,319, 731,339" style="stroke-width: 0.5; stroke-opacity: 1; stroke: rgb(80, 80, 80); fill: none;"></path><path class="link" marker-end="" d="M551,319, 731,379" style="stroke-width: 0.5; stroke-opacity: 1; stroke: rgb(80, 80, 80); fill: none;"></path><path class="link" marker-end="" d="M731,-61, 911,299" style="stroke-width: 0.5; stroke-opacity: 1; stroke: rgb(80, 80, 80); fill: none;"></path><path class="link" marker-end="" d="M731,-61, 911,339" style="stroke-width: 0.5; stroke-opacity: 1; stroke: rgb(80, 80, 80); fill: none;"></path><path class="link" marker-end="" d="M731,-21, 911,299" style="stroke-width: 0.5; stroke-opacity: 1; stroke: rgb(80, 80, 80); fill: none;"></path><path class="link" marker-end="" d="M731,-21, 911,339" style="stroke-width: 0.5; stroke-opacity: 1; stroke: rgb(80, 80, 80); fill: none;"></path><path class="link" marker-end="" d="M731,19, 911,299" style="stroke-width: 0.5; stroke-opacity: 1; stroke: rgb(80, 80, 80); fill: none;"></path><path class="link" marker-end="" d="M731,19, 911,339" style="stroke-width: 0.5; stroke-opacity: 1; stroke: rgb(80, 80, 80); fill: none;"></path><path class="link" marker-end="" d="M731,59, 911,299" style="stroke-width: 0.5; stroke-opacity: 1; stroke: rgb(80, 80, 80); fill: none;"></path><path class="link" marker-end="" d="M731,59, 911,339" style="stroke-width: 0.5; stroke-opacity: 1; stroke: rgb(80, 80, 80); fill: none;"></path><path class="link" marker-end="" d="M731,99, 911,299" style="stroke-width: 0.5; stroke-opacity: 1; stroke: rgb(80, 80, 80); fill: none;"></path><path class="link" marker-end="" d="M731,99, 911,339" style="stroke-width: 0.5; stroke-opacity: 1; stroke: rgb(80, 80, 80); fill: none;"></path><path class="link" marker-end="" d="M731,139, 911,299" style="stroke-width: 0.5; stroke-opacity: 1; stroke: rgb(80, 80, 80); fill: none;"></path><path class="link" marker-end="" d="M731,139, 911,339" style="stroke-width: 0.5; stroke-opacity: 1; stroke: rgb(80, 80, 80); fill: none;"></path><path class="link" marker-end="" d="M731,179, 911,299" style="stroke-width: 0.5; stroke-opacity: 1; stroke: rgb(80, 80, 80); fill: none;"></path><path class="link" marker-end="" d="M731,179, 911,339" style="stroke-width: 0.5; stroke-opacity: 1; stroke: rgb(80, 80, 80); fill: none;"></path><path class="link" marker-end="" d="M731,219, 911,299" style="stroke-width: 0.5; stroke-opacity: 1; stroke: rgb(80, 80, 80); fill: none;"></path><path class="link" marker-end="" d="M731,219, 911,339" style="stroke-width: 0.5; stroke-opacity: 1; stroke: rgb(80, 80, 80); fill: none;"></path><path class="link" marker-end="" d="M731,259, 911,299" style="stroke-width: 0.5; stroke-opacity: 1; stroke: rgb(80, 80, 80); fill: none;"></path><path class="link" marker-end="" d="M731,259, 911,339" style="stroke-width: 0.5; stroke-opacity: 1; stroke: rgb(80, 80, 80); fill: none;"></path><path class="link" marker-end="" d="M731,299, 911,299" style="stroke-width: 0.5; stroke-opacity: 1; stroke: rgb(80, 80, 80); fill: none;"></path><path class="link" marker-end="" d="M731,299, 911,339" style="stroke-width: 0.5; stroke-opacity: 1; stroke: rgb(80, 80, 80); fill: none;"></path><path class="link" marker-end="" d="M731,339, 911,299" style="stroke-width: 0.5; stroke-opacity: 1; stroke: rgb(80, 80, 80); fill: none;"></path><path class="link" marker-end="" d="M731,339, 911,339" style="stroke-width: 0.5; stroke-opacity: 1; stroke: rgb(80, 80, 80); fill: none;"></path><path class="link" marker-end="" d="M731,379, 911,299" style="stroke-width: 0.5; stroke-opacity: 1; stroke: rgb(80, 80, 80); fill: none;"></path><path class="link" marker-end="" d="M731,379, 911,339" style="stroke-width: 0.5; stroke-opacity: 1; stroke: rgb(80, 80, 80); fill: none;"></path><path class="link" marker-end="" d="M551,319, 731,419" style="stroke-width: 0.5; stroke-opacity: 1; stroke: rgb(80, 80, 80); fill: none;"></path><path class="link" marker-end="" d="M551,319, 731,459" style="stroke-width: 0.5; stroke-opacity: 1; stroke: rgb(80, 80, 80); fill: none;"></path><path class="link" marker-end="" d="M551,319, 731,499" style="stroke-width: 0.5; stroke-opacity: 1; stroke: rgb(80, 80, 80); fill: none;"></path><path class="link" marker-end="" d="M551,319, 731,539" style="stroke-width: 0.5; stroke-opacity: 1; stroke: rgb(80, 80, 80); fill: none;"></path><path class="link" marker-end="" d="M551,319, 731,579" style="stroke-width: 0.5; stroke-opacity: 1; stroke: rgb(80, 80, 80); fill: none;"></path><path class="link" marker-end="" d="M551,319, 731,619" style="stroke-width: 0.5; stroke-opacity: 1; stroke: rgb(80, 80, 80); fill: none;"></path><path class="link" marker-end="" d="M551,319, 731,659" style="stroke-width: 0.5; stroke-opacity: 1; stroke: rgb(80, 80, 80); fill: none;"></path><path class="link" marker-end="" d="M551,319, 731,699" style="stroke-width: 0.5; stroke-opacity: 1; stroke: rgb(80, 80, 80); fill: none;"></path><path class="link" marker-end="" d="M731,419, 911,299" style="stroke-width: 0.5; stroke-opacity: 1; stroke: rgb(80, 80, 80); fill: none;"></path><path class="link" marker-end="" d="M731,419, 911,339" style="stroke-width: 0.5; stroke-opacity: 1; stroke: rgb(80, 80, 80); fill: none;"></path><path class="link" marker-end="" d="M731,459, 911,299" style="stroke-width: 0.5; stroke-opacity: 1; stroke: rgb(80, 80, 80); fill: none;"></path><path class="link" marker-end="" d="M731,459, 911,339" style="stroke-width: 0.5; stroke-opacity: 1; stroke: rgb(80, 80, 80); fill: none;"></path><path class="link" marker-end="" d="M731,499, 911,299" style="stroke-width: 0.5; stroke-opacity: 1; stroke: rgb(80, 80, 80); fill: none;"></path><path class="link" marker-end="" d="M731,499, 911,339" style="stroke-width: 0.5; stroke-opacity: 1; stroke: rgb(80, 80, 80); fill: none;"></path><path class="link" marker-end="" d="M731,539, 911,299" style="stroke-width: 0.5; stroke-opacity: 1; stroke: rgb(80, 80, 80); fill: none;"></path><path class="link" marker-end="" d="M731,539, 911,339" style="stroke-width: 0.5; stroke-opacity: 1; stroke: rgb(80, 80, 80); fill: none;"></path><path class="link" marker-end="" d="M731,579, 911,299" style="stroke-width: 0.5; stroke-opacity: 1; stroke: rgb(80, 80, 80); fill: none;"></path><path class="link" marker-end="" d="M731,579, 911,339" style="stroke-width: 0.5; stroke-opacity: 1; stroke: rgb(80, 80, 80); fill: none;"></path><path class="link" marker-end="" d="M731,619, 911,299" style="stroke-width: 0.5; stroke-opacity: 1; stroke: rgb(80, 80, 80); fill: none;"></path><path class="link" marker-end="" d="M731,619, 911,339" style="stroke-width: 0.5; stroke-opacity: 1; stroke: rgb(80, 80, 80); fill: none;"></path><path class="link" marker-end="" d="M731,659, 911,299" style="stroke-width: 0.5; stroke-opacity: 1; stroke: rgb(80, 80, 80); fill: none;"></path><path class="link" marker-end="" d="M731,659, 911,339" style="stroke-width: 0.5; stroke-opacity: 1; stroke: rgb(80, 80, 80); fill: none;"></path><path class="link" marker-end="" d="M731,699, 911,299" style="stroke-width: 0.5; stroke-opacity: 1; stroke: rgb(80, 80, 80); fill: none;"></path><path class="link" marker-end="" d="M731,699, 911,339" style="stroke-width: 0.5; stroke-opacity: 1; stroke: rgb(80, 80, 80); fill: none;"></path><circle r="10" class="node" id="0_0" cx="551" cy="319" style="fill: rgb(255, 255, 255); stroke: rgb(51, 51, 51);"></circle><circle r="10" class="node" id="1_0" cx="731" cy="-61" style="fill: rgb(255, 255, 255); stroke: rgb(51, 51, 51);"></circle><circle r="10" class="node" id="1_1" cx="731" cy="-21" style="fill: rgb(255, 255, 255); stroke: rgb(51, 51, 51);"></circle><circle r="10" class="node" id="1_2" cx="731" cy="19" style="fill: rgb(255, 255, 255); stroke: rgb(51, 51, 51);"></circle><circle r="10" class="node" id="1_3" cx="731" cy="59" style="fill: rgb(255, 255, 255); stroke: rgb(51, 51, 51);"></circle><circle r="10" class="node" id="1_4" cx="731" cy="99" style="fill: rgb(255, 255, 255); stroke: rgb(51, 51, 51);"></circle><circle r="10" class="node" id="1_5" cx="731" cy="139" style="fill: rgb(255, 255, 255); stroke: rgb(51, 51, 51);"></circle><circle r="10" class="node" id="1_6" cx="731" cy="179" style="fill: rgb(255, 255, 255); stroke: rgb(51, 51, 51);"></circle><circle r="10" class="node" id="1_7" cx="731" cy="219" style="fill: rgb(255, 255, 255); stroke: rgb(51, 51, 51);"></circle><circle r="10" class="node" id="1_8" cx="731" cy="259" style="fill: rgb(255, 255, 255); stroke: rgb(51, 51, 51);"></circle><circle r="10" class="node" id="1_9" cx="731" cy="299" style="fill: rgb(255, 255, 255); stroke: rgb(51, 51, 51);"></circle><circle r="10" class="node" id="1_10" cx="731" cy="339" style="fill: rgb(255, 255, 255); stroke: rgb(51, 51, 51);"></circle><circle r="10" class="node" id="1_11" cx="731" cy="379" style="fill: rgb(255, 255, 255); stroke: rgb(51, 51, 51);"></circle><circle r="10" class="node" id="1_12" cx="731" cy="419" style="fill: rgb(255, 255, 255); stroke: rgb(51, 51, 51);"></circle><circle r="10" class="node" id="1_13" cx="731" cy="459" style="fill: rgb(255, 255, 255); stroke: rgb(51, 51, 51);"></circle><circle r="10" class="node" id="1_14" cx="731" cy="499" style="fill: rgb(255, 255, 255); stroke: rgb(51, 51, 51);"></circle><circle r="10" class="node" id="1_15" cx="731" cy="539" style="fill: rgb(255, 255, 255); stroke: rgb(51, 51, 51);"></circle><circle r="10" class="node" id="1_16" cx="731" cy="579" style="fill: rgb(255, 255, 255); stroke: rgb(51, 51, 51);"></circle><circle r="10" class="node" id="1_17" cx="731" cy="619" style="fill: rgb(255, 255, 255); stroke: rgb(51, 51, 51);"></circle><circle r="10" class="node" id="1_18" cx="731" cy="659" style="fill: rgb(255, 255, 255); stroke: rgb(51, 51, 51);"></circle><circle r="10" class="node" id="1_19" cx="731" cy="699" style="fill: rgb(255, 255, 255); stroke: rgb(51, 51, 51);"></circle><circle r="10" class="node" id="2_0" cx="911" cy="299" style="fill: rgb(255, 255, 255); stroke: rgb(51, 51, 51);"></circle><circle r="10" class="node" id="2_1" cx="911" cy="339" style="fill: rgb(255, 255, 255); stroke: rgb(51, 51, 51);"></circle><text class="text" dy=".35em" x="516" y="739" style="font-size: 12px;">Input Layer ∈ ℝ¹</text><text class="text" dy=".35em" x="696" y="739" style="font-size: 12px;">Hidden Layer ∈ ℝ²⁰</text><text class="text" dy=".35em" x="876" y="739" style="font-size: 12px;">Output Layer ∈ ℝ²</text></g><defs><marker id="arrow" viewBox="0 -5 10 10" markerWidth="7" markerHeight="7" orient="auto" refX="40"><path d="M0,-5L10,0L0,5" style="stroke: rgb(80, 80, 80); fill: none;"></path></marker></defs></svg>